<svg width="512" height="512" xmlns="http://www.w3.org/2000/svg">
 <!-- Created with Method Draw - http://github.com/duopixel/Method-Draw/ -->

 <g>
  <title>background</title>
  <rect fill="#fff" id="canvas_background" height="514" width="514" y="-1" x="-1"/>
  <g display="none" overflow="visible" y="0" x="0" height="100%" width="100%" id="canvasGrid">
   <rect fill="url(#gridpattern)" stroke-width="0" y="0" x="0" height="100%" width="100%"/>
  </g>
 </g>
 <g>
  <title>Layer 1</title>
  <g id="svg_22">
   <path id="svg_5" fill="#FED42D" d="m446.399414,223.508728c-0.98111,-4.834015 -5.539856,-8.374359 -10.918732,-8.47876c-5.397675,-0.07605 -10.096405,3.258911 -11.299255,8.050751c-11.544373,45.980438 -55.71167,78.094177 -107.408569,78.094177c-60.763031,0 -110.197983,-45.184509 -110.197983,-100.723114c0,-47.252014 35.134644,-87.621208 85.441849,-98.171593c5.242615,-1.099426 8.920044,-5.411407 8.808075,-10.326347c-0.112762,-4.91494 -3.986053,-9.083099 -9.274048,-9.980644c-11.686554,-1.983109 -23.647064,-2.988503 -35.550751,-2.988503c-51.730194,0 -100.364777,18.413048 -136.943588,51.846848c-36.578033,33.433746 -56.72316,77.886017 -56.72316,125.168488s20.145126,91.734772 56.72316,125.168549c36.578812,33.433716 85.213394,51.846741 136.943588,51.846741s100.364075,-18.413025 136.942871,-51.846741s56.723877,-77.886108 56.723877,-125.168549c0,-10.871246 -1.099121,-21.802643 -3.267334,-32.491302z"/>
   <path id="svg_6" fill="#FCBF29" d="m446.399414,223.508728c-0.98111,-4.834015 -5.539856,-8.374359 -10.918732,-8.47876c-5.397675,-0.07605 -10.096405,3.258911 -11.299255,8.050751c-11.544373,45.980438 -55.71167,78.094177 -107.408569,78.094177c-30.381561,0 -57.930634,-11.295807 -77.884415,-29.533966l-119.832031,109.528259c36.578812,33.433105 85.213394,51.84613 136.943588,51.84613s100.364075,-18.413025 136.942871,-51.846741s56.723877,-77.886108 56.723877,-125.168549c0,-10.871246 -1.099121,-21.802643 -3.267334,-32.491302z"/>
   <g transform="matrix(0.756511, 0, 0, 0.691466, -377.386, -519.508)" id="svg_7"/>
   <g transform="matrix(0.756511, 0, 0, 0.691466, -377.386, -519.508)" id="svg_8"/>
   <g transform="matrix(0.756511, 0, 0, 0.691466, -377.386, -519.508)" id="svg_9"/>
   <g transform="matrix(0.756511, 0, 0, 0.691466, -377.386, -519.508)" id="svg_10"/>
   <g transform="matrix(0.756511, 0, 0, 0.691466, -377.386, -519.508)" id="svg_11"/>
   <g transform="matrix(0.756511, 0, 0, 0.691466, -377.386, -519.508)" id="svg_12"/>
   <g transform="matrix(0.756511, 0, 0, 0.691466, -377.386, -519.508)" id="svg_13"/>
   <g transform="matrix(0.756511, 0, 0, 0.691466, -377.386, -519.508)" id="svg_14"/>
   <g transform="matrix(0.756511, 0, 0, 0.691466, -377.386, -519.508)" id="svg_15"/>
   <g transform="matrix(0.756511, 0, 0, 0.691466, -377.386, -519.508)" id="svg_16"/>
   <g transform="matrix(0.756511, 0, 0, 0.691466, -377.386, -519.508)" id="svg_17"/>
   <g transform="matrix(0.756511, 0, 0, 0.691466, -377.386, -519.508)" id="svg_18"/>
   <g transform="matrix(0.756511, 0, 0, 0.691466, -377.386, -519.508)" id="svg_19"/>
   <g transform="matrix(0.756511, 0, 0, 0.691466, -377.386, -519.508)" id="svg_20"/>
   <g transform="matrix(0.756511, 0, 0, 0.691466, -377.386, -519.508)" id="svg_21"/>
  </g>
 </g>
</svg>