<svg width="512" height="400" xmlns="http://www.w3.org/2000/svg">
 <!-- Created with Method Draw - http://github.com/duopixel/Method-Draw/ -->

 <g>
  <title>background</title>
  <rect fill="#fff" id="canvas_background" height="402" width="514" y="-1" x="-1"/>
  <g display="none" overflow="visible" y="0" x="0" height="100%" width="100%" id="canvasGrid">
   <rect fill="url(#gridpattern)" stroke-width="0" y="0" x="0" height="100%" width="100%"/>
  </g>
 </g>
 <g>
  <title>Layer 1</title>
  <g id="svg_26">
   <g transform="matrix(0.437709, 0, 0, 0.437709, -113.1, -151.667)" id="svg_5">
    <g id="svg_6">
     <path fill="#2d2d2d" id="svg_7" d="m792.053284,564.491333l-136.53302,0c-9.426025,0 -17.067017,7.640991 -17.067017,17.067017l0,443.733154c0,9.425903 7.640991,17.066895 17.067017,17.066895l136.53302,0c9.425964,0 17.066956,-7.640991 17.066956,-17.066895l0,-443.733154c0,-9.426025 -7.640991,-17.067017 -17.066956,-17.067017z"/>
    </g>
   </g>
   <g transform="matrix(0.437709, 0, 0, 0.437709, -113.1, -151.667)" id="svg_8">
    <g id="svg_9">
     <path fill="#2d2d2d" id="svg_10" d="m1030.987305,564.491333l-136.534119,0c-9.425903,0 -17.066895,7.640991 -17.066895,17.067017l0,443.733154c0,9.425903 7.640991,17.066895 17.066895,17.066895l136.533142,0c9.426025,0 17.067017,-7.640991 17.067017,-17.066895l0,-443.733154c0,-9.426025 -7.640991,-17.067017 -17.06604,-17.067017z"/>
    </g>
   </g>
   <g transform="matrix(0.437709, 0, 0, 0.437709, -113.1, -151.667)" id="svg_11"/>
   <g transform="matrix(0.437709, 0, 0, 0.437709, -113.1, -151.667)" id="svg_12"/>
   <g transform="matrix(0.437709, 0, 0, 0.437709, -113.1, -151.667)" id="svg_13"/>
   <g transform="matrix(0.437709, 0, 0, 0.437709, -113.1, -151.667)" id="svg_14"/>
   <g transform="matrix(0.437709, 0, 0, 0.437709, -113.1, -151.667)" id="svg_15"/>
   <g transform="matrix(0.437709, 0, 0, 0.437709, -113.1, -151.667)" id="svg_16"/>
   <g transform="matrix(0.437709, 0, 0, 0.437709, -113.1, -151.667)" id="svg_17"/>
   <g transform="matrix(0.437709, 0, 0, 0.437709, -113.1, -151.667)" id="svg_18"/>
   <g transform="matrix(0.437709, 0, 0, 0.437709, -113.1, -151.667)" id="svg_19"/>
   <g transform="matrix(0.437709, 0, 0, 0.437709, -113.1, -151.667)" id="svg_20"/>
   <g transform="matrix(0.437709, 0, 0, 0.437709, -113.1, -151.667)" id="svg_21"/>
   <g transform="matrix(0.437709, 0, 0, 0.437709, -113.1, -151.667)" id="svg_22"/>
   <g transform="matrix(0.437709, 0, 0, 0.437709, -113.1, -151.667)" id="svg_23"/>
   <g transform="matrix(0.437709, 0, 0, 0.437709, -113.1, -151.667)" id="svg_24"/>
   <g transform="matrix(0.437709, 0, 0, 0.437709, -113.1, -151.667)" id="svg_25"/>
  </g>
 </g>
</svg>